# xmcd
#
# Track frame offsets:
#	150
#	15665
#	30519
#	44516
#	60643
#	75204
#	90436
#	105962
#	124538
#	140492
#	161090
#	175343
#	190145
#	206275
#	207093
#	207886
#	208933
#	209831
#	210694
#	211490
#
# Disc length: 2826 seconds
#
# Revision: 1
# Processed by: cddbd v1.5.2PL0 Copyright (c) Steve Scherf et al.
# Submitted via: audiograbber 1.83.01
#
DISCID=1c0b0814
DTITLE=Various Artist - CDX 594
DYEAR=2014
DGENRE=Country
TTITLE0=Kip Moore - Dirt Road
TTITLE1=Blake Shelton - My Eyes
TTITLE2=Brad Paisley - River Bank
TTITLE3=John King - Tonight Tonight
TTITLE4=Casey Donahew Band - Lovin' Out Of Control
TTITLE5=Buzz Cason - That's What I Love About The South
TTITLE6=Corey Kane Band - Cheatin' On A Country Girl
TTITLE7=Johnny Orr Band - Down South
TTITLE8=Devin Lane - Fast Lane
TTITLE9=Ally Lindeen - Teardrops Dry
TTITLE10=Danny Griego - The Coast Is Clear
TTITLE11=Grayson - Time Machine
TTITLE12=Misty Rae Carson - Woke Up One Day
TTITLE13=Hannah Belle - Home Town Country (Liner)
TTITLE14=Hannah Belle - Kickin' Country (Liner)
TTITLE15=Hannah Belle - My New Single (Liner)
TTITLE16=Hannah Belle - Super Country (Liner)
TTITLE17=Hannah Belle - The Best In Country (Liner)
TTITLE18=Hannah Belle - Today's Best Country (Liner)
TTITLE19=Hannah Belle - Today's Hot Country Music (Liner)
EXTD=
EXTT0=
EXTT1=
EXTT2=
EXTT3=
EXTT4=
EXTT5=
EXTT6=
EXTT7=
EXTT8=
EXTT9=
EXTT10=
EXTT11=
EXTT12=
EXTT13=
EXTT14=
EXTT15=
EXTT16=
EXTT17=
EXTT18=
EXTT19=
PLAYORDER=
